<svg width="1136" height="247" viewBox="0 0 1136 247" fill="none" xmlns="http://www.w3.org/2000/svg">
<circle cx="224.256" cy="19.234" r="18.7696" fill="#1F9B97"/>
<circle cx="183.398" cy="19.234" r="18.7696" fill="#1F9D8E"/>
<circle cx="100.839" cy="19.234" r="18.7696" fill="#2FA768"/>
<circle cx="59.9811" cy="19.234" r="18.7696" fill="#4FB543"/>
<circle cx="183.398" cy="186.038" r="18.7696" fill="#1F9D8E"/>
<circle cx="100.839" cy="186.038" r="18.7696" fill="#2FA768"/>
<circle cx="141.697" cy="186.038" r="18.7696" fill="#1FA17B"/>
<circle cx="224.256" cy="102.636" r="18.7696" fill="#1F9B97"/>
<circle cx="183.398" cy="102.636" r="18.7696" fill="#1F9D8E"/>
<circle cx="19.1233" cy="102.636" r="18.7696" fill="#5FBB31"/>
<circle cx="265.114" cy="102.636" r="18.7696" fill="#1F99A1"/>
<circle cx="100.839" cy="102.636" r="18.7696" fill="#2FA768"/>
<circle cx="59.9811" cy="102.636" r="18.7696" fill="#4FB543"/>
<circle cx="141.697" cy="102.636" r="18.7696" fill="#1FA17B"/>
<circle cx="224.256" cy="60.9351" r="18.7696" fill="#1F9B97"/>
<circle cx="183.398" cy="60.9351" r="18.7696" fill="#1F9D8E"/>
<circle cx="19.1233" cy="60.9351" r="18.7696" fill="#5FBB31"/>
<circle cx="265.114" cy="60.9351" r="18.7696" fill="#1F99A1"/>
<circle cx="100.839" cy="60.9351" r="18.7696" fill="#2FA768"/>
<circle cx="59.9811" cy="60.9351" r="18.7696" fill="#4FB543"/>
<circle cx="141.697" cy="60.9351" r="18.7696" fill="#1FA17B"/>
<circle cx="141.697" cy="227.74" r="18.7696" fill="#1FA17B"/>
<circle cx="224.256" cy="144.337" r="18.7696" fill="#1F9B97"/>
<circle cx="183.398" cy="144.337" r="18.7696" fill="#1F9D8E"/>
<circle cx="100.839" cy="144.337" r="18.7696" fill="#2FA768"/>
<circle cx="59.9811" cy="144.337" r="18.7696" fill="#4FB543"/>
<circle cx="141.697" cy="144.337" r="18.7696" fill="#1FA17B"/>
<path d="M401.193 191.7C382.323 191.7 366.853 185.41 352.573 172.66L360.903 162.8C373.313 174.02 385.213 179.63 401.703 179.63C417.683 179.63 428.223 171.13 428.223 159.4V159.06C428.223 148.01 422.273 141.72 397.283 136.45C369.913 130.5 357.333 121.66 357.333 102.11V101.77C357.333 83.07 373.823 69.3 396.433 69.3C413.773 69.3 426.183 74.23 438.253 83.92L430.433 94.29C419.383 85.28 408.333 81.37 396.093 81.37C380.623 81.37 370.763 89.87 370.763 100.58V100.92C370.763 112.14 376.883 118.43 403.063 124.04C429.583 129.82 441.823 139.51 441.823 157.7V158.04C441.823 178.44 424.823 191.7 401.193 191.7ZM456.443 190L510.673 70.15H523.253L577.483 190H563.033L549.093 158.55H484.323L470.213 190H456.443ZM489.593 146.31H543.823L516.793 85.79L489.593 146.31ZM619.419 190V142.91L569.949 71H586.269L626.389 130.5L666.849 71H682.489L633.019 142.74V190H619.419ZM703.879 190V71H717.309V123.87H785.989V71H799.419V190H785.989V136.45H717.309V190H703.879ZM880.639 191.87C851.229 191.87 831.169 173.85 831.169 140.19V71H844.599V139.34C844.599 165.01 858.369 179.46 880.979 179.46C902.909 179.46 916.849 166.2 916.849 140.19V71H930.279V139.17C930.279 173.85 910.389 191.87 880.639 191.87ZM993.483 190V83.41H953.533V71H1047.03V83.41H1007.08V190H993.483Z" fill="#414141"/>
</svg>
