<svg width="443" height="443" viewBox="0 0 443 443" fill="none" xmlns="http://www.w3.org/2000/svg">
<path d="M98.1675 423.7C90.3975 423.7 84.0275 421.11 78.1475 415.86L81.5775 411.8C86.6875 416.42 91.5875 418.73 98.3775 418.73C104.958 418.73 109.298 415.23 109.298 410.4V410.26C109.298 405.71 106.848 403.12 96.5575 400.95C85.2875 398.5 80.1075 394.86 80.1075 386.81V386.67C80.1075 378.97 86.8975 373.3 96.2075 373.3C103.348 373.3 108.458 375.33 113.428 379.32L110.208 383.59C105.658 379.88 101.108 378.27 96.0675 378.27C89.6975 378.27 85.6375 381.77 85.6375 386.18V386.32C85.6375 390.94 88.1575 393.53 98.9375 395.84C109.858 398.22 114.898 402.21 114.898 409.7V409.84C114.898 418.24 107.898 423.7 98.1675 423.7ZM120.918 423L143.248 373.65H148.428L170.758 423H164.808L159.068 410.05H132.398L126.588 423H120.918ZM134.568 405.01H156.898L145.768 380.09L134.568 405.01ZM188.026 423V403.61L167.656 374H174.376L190.896 398.5L207.556 374H213.996L193.626 403.54V423H188.026ZM222.803 423V374H228.333V395.77H256.613V374H262.143V423H256.613V400.95H228.333V423H222.803ZM295.587 423.77C283.477 423.77 275.217 416.35 275.217 402.49V374H280.747V402.14C280.747 412.71 286.417 418.66 295.727 418.66C304.757 418.66 310.497 413.2 310.497 402.49V374H316.027V402.07C316.027 416.35 307.837 423.77 295.587 423.77ZM342.052 423V379.11H325.602V374H364.102V379.11H347.652V423H342.052Z" fill="white"/>
<circle cx="313.352" cy="52.7413" r="21.7413" fill="#1F9B97"/>
<circle cx="266.025" cy="52.7413" r="21.7413" fill="#1F9D8E"/>
<circle cx="170.395" cy="52.7413" r="21.7413" fill="#2FA768"/>
<circle cx="123.068" cy="52.7413" r="21.7413" fill="#4FB543"/>
<circle cx="266.025" cy="245.955" r="21.7413" fill="#1F9D8E"/>
<circle cx="170.395" cy="245.955" r="21.7413" fill="#2FA768"/>
<circle cx="217.721" cy="245.955" r="21.7413" fill="#1FA17B"/>
<circle cx="313.352" cy="149.348" r="21.7413" fill="#1F9B97"/>
<circle cx="266.025" cy="149.348" r="21.7413" fill="#1F9D8E"/>
<circle cx="75.7413" cy="149.348" r="21.7413" fill="#5FBB31"/>
<circle cx="360.678" cy="149.348" r="21.7413" fill="#1F99A1"/>
<circle cx="170.395" cy="149.348" r="21.7413" fill="#2FA768"/>
<circle cx="123.068" cy="149.348" r="21.7413" fill="#4FB543"/>
<circle cx="217.721" cy="149.348" r="21.7413" fill="#1FA17B"/>
<circle cx="217.721" cy="149.348" r="21.7413" fill="#1F9D8E"/>
<circle cx="313.352" cy="101.045" r="21.7413" fill="#1F9B97"/>
<circle cx="266.025" cy="101.045" r="21.7413" fill="#1F9D8E"/>
<circle cx="75.7413" cy="101.045" r="21.7413" fill="#5FBB31"/>
<circle cx="360.678" cy="101.045" r="21.7413" fill="#1F99A1"/>
<circle cx="170.395" cy="101.045" r="21.7413" fill="#2FA768"/>
<circle cx="123.068" cy="101.045" r="21.7413" fill="#4FB543"/>
<circle cx="217.721" cy="101.045" r="21.7413" fill="#1FA17B"/>
<circle cx="217.721" cy="294.259" r="21.7413" fill="#1FA17B"/>
<circle cx="313.352" cy="197.652" r="21.7413" fill="#1F9B97"/>
<circle cx="266.025" cy="197.652" r="21.7413" fill="#1F9D8E"/>
<circle cx="170.395" cy="197.652" r="21.7413" fill="#2FA768"/>
<circle cx="123.068" cy="197.652" r="21.7413" fill="#4FB543"/>
<circle cx="217.721" cy="197.652" r="21.7413" fill="#1FA17B"/>
</svg>
