<svg width="284" height="247" viewBox="0 0 284 247" fill="none" xmlns="http://www.w3.org/2000/svg">
<circle cx="224.256" cy="19.234" r="18.7696" fill="#1F9B97"/>
<circle cx="183.398" cy="19.234" r="18.7696" fill="#1F9D8E"/>
<circle cx="100.839" cy="19.234" r="18.7696" fill="#2FA768"/>
<circle cx="59.9811" cy="19.234" r="18.7696" fill="#4FB543"/>
<circle cx="183.398" cy="186.038" r="18.7696" fill="#1F9D8E"/>
<circle cx="100.839" cy="186.038" r="18.7696" fill="#2FA768"/>
<circle cx="141.697" cy="186.038" r="18.7696" fill="#1FA17B"/>
<circle cx="224.256" cy="102.636" r="18.7696" fill="#1F9B97"/>
<circle cx="183.398" cy="102.636" r="18.7696" fill="#1F9D8E"/>
<circle cx="19.1233" cy="102.636" r="18.7696" fill="#5FBB31"/>
<circle cx="265.114" cy="102.636" r="18.7696" fill="#1F99A1"/>
<circle cx="100.839" cy="102.636" r="18.7696" fill="#2FA768"/>
<circle cx="59.9811" cy="102.636" r="18.7696" fill="#4FB543"/>
<circle cx="141.697" cy="102.636" r="18.7696" fill="#1FA17B"/>
<circle cx="224.256" cy="60.9351" r="18.7696" fill="#1F9B97"/>
<circle cx="183.398" cy="60.9351" r="18.7696" fill="#1F9D8E"/>
<circle cx="19.1233" cy="60.9351" r="18.7696" fill="#5FBB31"/>
<circle cx="265.114" cy="60.9351" r="18.7696" fill="#1F99A1"/>
<circle cx="100.839" cy="60.9351" r="18.7696" fill="#2FA768"/>
<circle cx="59.9811" cy="60.9351" r="18.7696" fill="#4FB543"/>
<circle cx="141.697" cy="60.9351" r="18.7696" fill="#1FA17B"/>
<circle cx="141.697" cy="227.74" r="18.7696" fill="#1FA17B"/>
<circle cx="224.256" cy="144.337" r="18.7696" fill="#1F9B97"/>
<circle cx="183.398" cy="144.337" r="18.7696" fill="#1F9D8E"/>
<circle cx="100.839" cy="144.337" r="18.7696" fill="#2FA768"/>
<circle cx="59.9811" cy="144.337" r="18.7696" fill="#4FB543"/>
<circle cx="141.697" cy="144.337" r="18.7696" fill="#1FA17B"/>
</svg>
